# xmcd
#
# Track frame offsets:
#  150
#  13542
#  26822
#  37945
#  46005
#  56070
#  64492
#  73217
#  84165
#  97380
#  107662
#  121325
#
# Disc length: 1764 seconds
#
# Revision: 1
# Processed by: cddbd v1.5.1PL0 Copyright (c) Steve Scherf et al.
# Submitted via: Collectorz.com Music Collector 6.9
#
DISCID=a206e20c
DTITLE=Little Willie John - Sure Things
DYEAR=1994
DGENRE=R&B - Soul
TTITLE0=Sleep
TTITLE1=A Cottage For Sale
TTITLE2=There's A Difference
TTITLE3=I'm Sorry
TTITLE4=My Love Is
TTITLE5=I Like To See My Baby
TTITLE6=Walk Slow
TTITLE7=The Very Thought Of You
TTITLE8=Heartbreak (It's Hurtin' Me)
TTITLE9=Loving Care
TTITLE10=You Hurt Me
TTITLE11=I'm Shakin'
EXTD=
EXTT0=
EXTT1=
EXTT2=
EXTT3=
EXTT4=
EXTT5=
EXTT6=
EXTT7=
EXTT8=
EXTT9=
EXTT10=
EXTT11=
PLAYORDER=
